<svg width="38" height="44" viewBox="0 0 38 44" fill="none" xmlns="http://www.w3.org/2000/svg">
<path d="M18.8571 6.28571C12.2402 6.28571 6.85714 11.2209 6.85714 17.2857C6.85714 19.9344 8.07703 26.1171 10.3323 29.6452C10.3214 29.7174 10.2857 29.7819 10.2857 29.8571V33C10.2857 35.0458 11.7231 36.7739 13.7143 37.4247V39.2857C13.7143 41.8853 16.0212 44 18.8571 44C21.6931 44 24 41.8853 24 39.2857V37.4247C25.9911 36.7739 27.4286 35.0458 27.4286 33V29.8571C27.4286 29.7819 27.3929 29.7174 27.3819 29.6452C29.6373 26.1171 30.8571 19.9344 30.8571 17.2857C30.8571 11.2209 25.4741 6.28571 18.8571 6.28571ZM18.8571 9.42857C23.5831 9.42857 27.4286 12.9536 27.4286 17.2857C27.4286 20.0841 26.0515 25.7501 24.2757 28.2857H13.4388C11.6628 25.7501 10.2857 20.0841 10.2857 17.2857C10.2857 12.9536 14.1312 9.42857 18.8571 9.42857ZM20.5714 39.2857C20.5714 40.1528 19.8022 40.8571 18.8571 40.8571C17.9121 40.8571 17.1429 40.1528 17.1429 39.2857V37.7143H20.5714V39.2857ZM24 33C24 33.8671 23.2308 34.5714 22.2857 34.5714H15.4286C14.4835 34.5714 13.7143 33.8671 13.7143 33V31.4286H24V33ZM19.7143 0H18C17.5267 0 17.1429 0.351843 17.1429 0.785714V2.35714C17.1429 2.79101 17.5267 3.14286 18 3.14286H19.7143C20.1876 3.14286 20.5714 2.79101 20.5714 2.35714V0.785714C20.5714 0.351843 20.1876 0 19.7143 0ZM0.857143 18.8571H2.57143C3.04474 18.8571 3.42857 18.5053 3.42857 18.0714V16.5C3.42857 16.0661 3.04474 15.7143 2.57143 15.7143H0.857143C0.383829 15.7143 0 16.0661 0 16.5V18.0714C0 18.5053 0.383829 18.8571 0.857143 18.8571ZM34.2857 16.5V18.0714C34.2857 18.5053 34.6695 18.8571 35.1429 18.8571H36.8571C37.3305 18.8571 37.7143 18.5053 37.7143 18.0714V16.5C37.7143 16.0661 37.3305 15.7143 36.8571 15.7143H35.1429C34.6695 15.7143 34.2857 16.0661 34.2857 16.5ZM29.1607 6.72933L30.3727 7.84033C30.7073 8.14707 31.2501 8.14723 31.5847 7.84049L32.7972 6.72933C33.132 6.42243 33.132 5.92491 32.7974 5.61801L31.5854 4.50701C31.2507 4.20027 30.708 4.20011 30.3734 4.50686L29.1609 5.61801C28.8259 5.92491 28.8259 6.42243 29.1607 6.72933ZM6.12891 4.50701L4.91691 5.61801C4.58229 5.92491 4.58229 6.42243 4.91709 6.72933L6.1296 7.84049C6.4644 8.14723 7.00697 8.14723 7.3416 7.84033L8.5536 6.72933C8.8884 6.42243 8.8884 5.92491 8.55343 5.61801L7.34109 4.50701C7.00629 4.20027 6.46371 4.20027 6.12891 4.50701Z" fill="#AB9AFF"/>
</svg>
