<svg width="35" height="44" viewBox="0 0 35 44" fill="none" xmlns="http://www.w3.org/2000/svg">
<path d="M29.8566 0H26.7138C24.1142 0 21.9996 2.11463 21.9996 4.7142V10.9998V26.7138C21.9996 29.3134 19.885 31.428 17.2854 31.428C14.6858 31.428 12.5712 29.3134 12.5712 26.7138V10.9998V4.7142C12.5712 2.11463 10.4566 0 7.857 0H4.7142C2.11463 0 0 2.11463 0 4.7142V10.9998V26.7138C0 31.4741 1.99489 36.0724 5.47303 39.3303C8.71326 42.365 12.8643 44 17.2692 44C17.6589 44 18.0512 43.987 18.444 43.9617C27.4873 43.3692 34.5708 35.5553 34.5708 26.1706V10.9998V4.7142C34.5708 2.11463 32.4562 0 29.8566 0ZM25.1424 4.7142C25.1424 3.84789 25.8475 3.1428 26.7138 3.1428H29.8566C30.7229 3.1428 31.428 3.84789 31.428 4.7142V9.4284H25.1424V4.7142ZM3.1428 4.7142C3.1428 3.84789 3.84789 3.1428 4.7142 3.1428H7.857C8.72332 3.1428 9.4284 3.84789 9.4284 4.7142V9.4284H3.1428V4.7142ZM18.2383 40.825C14.276 41.0943 10.5072 39.7393 7.62145 37.037C4.73337 34.3315 3.1428 30.6653 3.1428 26.7138V12.5712H9.4284V26.7138C9.4284 31.0458 12.9534 34.5708 17.2854 34.5708C21.6174 34.5708 25.1424 31.0458 25.1424 26.7138V12.5712H31.428V26.1706C31.428 33.9041 25.6343 40.3416 18.2383 40.825Z" fill="#AB9AFF"/>
</svg>
