<svg width="128" height="128" viewBox="0 0 128 128" fill="none" xmlns="http://www.w3.org/2000/svg">
<path d="M67 119C67 117.3 65.7 116 64 116C35.3 116 12 92.7 12 64C12 35.3 35.3 12 64 12C92.7 12 116 35.3 116 64C116 65.7 117.3 67 119 67C120.7 67 122 65.7 122 64C122 32 96 6 64 6C32 6 6 32 6 64C6 96 32 122 64 122C65.7 122 67 120.7 67 119Z" fill="white"/>
<path d="M49.605 63.6353C48.2814 64.9588 48.2814 67.1112 49.605 68.4348C50.9285 69.7583 53.0809 69.7583 54.4045 68.4348C56.9713 65.8679 60.3804 64.4508 64.0168 64.4508C67.6399 64.4508 71.049 65.8679 73.6292 68.4348C74.9528 69.7583 77.1052 69.7583 78.4287 68.4348C80.14 66.7235 79.0972 64.2903 78.4287 63.6353C74.5784 59.785 69.4581 57.6726 64.0168 57.6726C58.5756 57.6726 53.4553 59.785 49.605 63.6353Z" fill="white"/>
<path d="M39.9927 54.023C38.6691 55.3465 38.6691 57.4989 39.9927 58.8225C41.3162 60.146 43.4686 60.146 44.7922 58.8225C55.3938 48.2208 72.64 48.2208 83.2283 58.8225C84.5518 60.146 86.7043 60.146 88.0278 58.8225C89.8326 57.0177 88.6963 54.6781 88.0278 54.023C74.7924 40.7742 53.2414 40.7742 39.9927 54.023Z" fill="white"/>
<ellipse cx="64.6126" cy="74.9357" rx="4.97816" ry="4.97816" transform="rotate(-90 64.6126 74.9357)" fill="white"/>
<path d="M102 120C104.758 120.004 107.49 119.462 110.038 118.406C112.587 117.351 114.901 115.802 116.849 113.849C118.802 111.901 120.351 109.587 121.406 107.038C122.462 104.49 123.004 101.758 123 99C123.004 96.2417 122.462 93.51 121.406 90.9617C120.351 88.4134 118.802 86.0988 116.849 84.1509C114.901 82.1979 112.587 80.6492 110.038 79.5936C107.49 78.538 104.758 77.9964 102 78C99.2417 77.9965 96.51 78.5381 93.9617 79.5937C91.4134 80.6492 89.0988 82.198 87.1509 84.1509C85.198 86.0988 83.6492 88.4134 82.5937 90.9617C81.5381 93.51 80.9965 96.2417 81 99C80.9964 101.758 81.538 104.49 82.5936 107.038C83.6492 109.587 85.1979 111.901 87.1509 113.849C89.0988 115.802 91.4134 117.351 93.9617 118.406C96.51 119.462 99.2417 120.004 102 120Z" stroke="#81D929" stroke-width="4" stroke-linejoin="round"/>
<path d="M93.6 98.9999L99.9 105.3L112.5 92.6999" stroke="#81D929" stroke-width="4" stroke-linecap="round" stroke-linejoin="round"/>
</svg>
