<svg width="25" height="44" viewBox="0 0 25 44" fill="none" xmlns="http://www.w3.org/2000/svg">
<path d="M23.54 30.36L15.18 22L23.54 13.64C24.42 12.76 24.42 11.44 23.54 10.56L13.64 0.66C12.76 -0.22 11.44 -0.22 10.56 0.66C10.12 1.1 9.9 1.54 9.9 2.2V16.72L3.74 10.56C2.86 9.68 1.54 9.68 0.66 10.56C-0.22 11.44 -0.22 12.76 0.66 13.64L9.02 22L0.66 30.36C-0.22 31.24 -0.22 32.56 0.66 33.44C1.54 34.32 2.86 34.32 3.74 33.44L9.9 27.28V41.8C9.9 43.12 10.78 44 12.1 44C12.76 44 13.2 43.78 13.64 43.34L23.54 33.44C24.42 32.56 24.42 31.24 23.54 30.36ZM14.3 7.48L18.92 12.1L14.3 16.72V7.48ZM14.3 36.52V27.28L18.92 31.9L14.3 36.52Z" fill="#AB9AFF"/>
</svg>
