<svg width="36" height="36" viewBox="0 0 36 36" fill="none" xmlns="http://www.w3.org/2000/svg">
<rect width="36" height="36" rx="18" fill="#23175F"/>
<path d="M13.3936 18.5232C12.97 18.9468 12.97 19.6355 13.3936 20.0591C13.8171 20.4826 14.5059 20.4826 14.9294 20.0591C15.7508 19.2377 16.8417 18.7842 18.0054 18.7842C19.1647 18.7842 20.2557 19.2377 21.0813 20.0591C21.5049 20.4826 22.1936 20.4826 22.6172 20.0591C23.1648 19.5115 22.8311 18.7329 22.6172 18.5232C21.3851 17.2911 19.7466 16.6152 18.0054 16.6152C16.2642 16.6152 14.6257 17.2911 13.3936 18.5232Z" fill="white"/>
<path d="M10.3176 15.4474C9.89412 15.8709 9.89412 16.5597 10.3176 16.9832C10.7412 17.4067 11.43 17.4067 11.8535 16.9832C15.246 13.5907 20.7648 13.5907 24.1531 16.9832C24.5766 17.4067 25.2654 17.4067 25.6889 16.9832C26.2664 16.4057 25.9028 15.657 25.6889 15.4474C21.4536 11.2078 14.5573 11.2078 10.3176 15.4474Z" fill="white"/>
<ellipse cx="18.196" cy="22.1394" rx="1.59301" ry="1.59301" transform="rotate(-90 18.196 22.1394)" fill="white"/>
</svg>
