<svg width="31" height="44" viewBox="0 0 31 44" fill="none" xmlns="http://www.w3.org/2000/svg">
<path d="M24.0769 15.2309C24.0769 10.5653 20.2811 6.76941 15.6154 6.76941C10.9497 6.76941 7.15387 10.5653 7.15387 15.2309C7.15387 19.8966 10.9497 23.6925 15.6154 23.6925C20.2811 23.6925 24.0769 19.8966 24.0769 15.2309ZM10.5385 15.2309C10.5385 12.4319 12.8163 10.154 15.6154 10.154C18.4145 10.154 20.6923 12.4319 20.6923 15.2309C20.6923 18.03 18.4145 20.3079 15.6154 20.3079C12.8163 20.3079 10.5385 18.03 10.5385 15.2309Z" fill="#AB9AFF"/>
<path d="M28.3077 40.6154H27.4616V38.9231C27.4616 36.124 25.1837 33.8462 22.3846 33.8462V28.8538C27.3905 26.356 30.8462 21.1945 30.8462 15.2308C30.8462 6.83354 24.0143 0 15.6154 0C7.21648 0 0.384628 6.83354 0.384628 15.2308C0.384628 21.1962 3.84032 26.356 8.84617 28.8538V33.8462C6.04709 33.8462 3.76924 36.124 3.76924 38.9231V40.6154H2.92309C2.69868 40.6154 2.48345 40.7045 2.32477 40.8632C2.16608 41.0219 2.07694 41.2371 2.07694 41.4615V43.1538C2.07694 43.3783 2.16608 43.5935 2.32477 43.7522C2.48345 43.9109 2.69868 44 2.92309 44H28.3077C28.5321 44 28.7473 43.9109 28.906 43.7522C29.0647 43.5935 29.1539 43.3783 29.1539 43.1538V41.4615C29.1539 41.2371 29.0647 41.0219 28.906 40.8632C28.7473 40.7045 28.5321 40.6154 28.3077 40.6154ZM3.76924 15.2308C3.76924 8.69846 9.08478 3.38462 15.6154 3.38462C22.146 3.38462 27.4616 8.69846 27.4616 15.2308C27.4616 21.7631 22.146 27.0769 15.6154 27.0769C9.08478 27.0769 3.76924 21.7631 3.76924 15.2308ZM12.2308 30.0689C13.3206 30.3177 14.4511 30.4615 15.6154 30.4615C16.7797 30.4615 17.9102 30.3177 19 30.0689V33.8462H12.2308V30.0689ZM7.15386 40.6154V38.9231C7.15386 37.9906 7.91201 37.2308 8.84617 37.2308H22.3846C23.3188 37.2308 24.0769 37.9906 24.0769 38.9231V40.6154H7.15386Z" fill="#AB9AFF"/>
</svg>
