<svg width="128" height="128" viewBox="0 0 128 128" fill="none" xmlns="http://www.w3.org/2000/svg">
<path d="M67 119C67 117.3 65.7 116 64 116C35.3 116 12 92.7 12 64C12 35.3 35.3 12 64 12C92.7 12 116 35.3 116 64C116 65.7 117.3 67 119 67C120.7 67 122 65.7 122 64C122 32 96 6 64 6C32 6 6 32 6 64C6 96 32 122 64 122C65.7 122 67 120.7 67 119Z" fill="white"/>
<path d="M105.3 79.1C104.4 77.6 102.8 76.7 101 76.7C99.2 76.7 97.6 77.6 96.7 79.1L75.5 114.4C74.6 116 74.5 117.8 75.4 119.4C76.3 121 77.9 121.9 79.8 121.9H122.1C123.9 121.9 125.6 121 126.5 119.4C127.4 117.8 127.4 115.9 126.4 114.4L105.3 79.1ZM101 115C99.3 115 98 113.7 98 112C98 110.3 99.3 109 101 109C102.7 109 104 110.3 104 112C104 113.7 102.7 115 101 115ZM104 102C104 103.7 102.7 105 101 105C99.3 105 98 103.7 98 102V92C98 90.3 99.3 89 101 89C102.7 89 104 90.3 104 92V102Z" fill="#EF3A3A"/>
<path d="M49.605 63.6353C48.2814 64.9588 48.2814 67.1112 49.605 68.4348C50.9285 69.7583 53.0809 69.7583 54.4045 68.4348C56.9713 65.8679 60.3804 64.4508 64.0168 64.4508C67.6399 64.4508 71.049 65.8679 73.6292 68.4348C74.9528 69.7583 77.1052 69.7583 78.4287 68.4348C80.14 66.7235 79.0972 64.2903 78.4287 63.6353C74.5784 59.785 69.4581 57.6726 64.0168 57.6726C58.5756 57.6726 53.4553 59.785 49.605 63.6353Z" fill="white"/>
<path d="M39.9927 54.023C38.6691 55.3465 38.6691 57.4989 39.9927 58.8225C41.3162 60.146 43.4686 60.146 44.7922 58.8225C55.3938 48.2208 72.64 48.2208 83.2283 58.8225C84.5518 60.146 86.7043 60.146 88.0278 58.8225C89.8326 57.0177 88.6963 54.6781 88.0278 54.023C74.7924 40.7742 53.2414 40.7742 39.9927 54.023Z" fill="white"/>
<ellipse cx="64.6127" cy="74.9357" rx="4.97816" ry="4.97816" transform="rotate(-90 64.6127 74.9357)" fill="white"/>
</svg>
