<svg width="38" height="36" viewBox="0 0 38 36" fill="none" xmlns="http://www.w3.org/2000/svg">
<rect width="36" height="36" rx="18" fill="#23175F"/>
<path d="M13.3936 18.5232C12.97 18.9467 12.97 19.6355 13.3936 20.059C13.8171 20.4826 14.5059 20.4826 14.9294 20.059C15.7508 19.2376 16.8417 18.7842 18.0054 18.7842C19.1647 18.7842 20.2557 19.2376 21.0813 20.059C21.5049 20.4826 22.1936 20.4826 22.6172 20.059C23.1648 19.5114 22.8311 18.7328 22.6172 18.5232C21.3851 17.2911 19.7466 16.6152 18.0054 16.6152C16.2642 16.6152 14.6257 17.2911 13.3936 18.5232Z" fill="white"/>
<path d="M10.3176 15.4473C9.89412 15.8709 9.89412 16.5596 10.3176 16.9832C10.7412 17.4067 11.43 17.4067 11.8535 16.9832C15.246 13.5906 20.7648 13.5906 24.1531 16.9832C24.5766 17.4067 25.2654 17.4067 25.6889 16.9832C26.2664 16.4056 25.9028 15.657 25.6889 15.4473C21.4536 11.2077 14.5573 11.2077 10.3176 15.4473Z" fill="white"/>
<ellipse cx="18.196" cy="22.1394" rx="1.59301" ry="1.59301" transform="rotate(-90 18.196 22.1394)" fill="white"/>
<path d="M32.9923 0.584071C32.7861 0.219027 32.4196 0 32.0073 0C31.595 0 31.2286 0.219027 31.0224 0.584071L26.1665 9.17478C25.9604 9.56416 25.9375 10.0022 26.1436 10.3916C26.3498 10.781 26.7163 11 27.1515 11H36.8403C37.2526 11 37.642 10.781 37.8481 10.3916C38.0543 10.0022 38.0543 9.53982 37.8252 9.17478L32.9923 0.584071ZM32.0073 9.3208C31.618 9.3208 31.3202 9.00443 31.3202 8.59071C31.3202 8.17699 31.618 7.86062 32.0073 7.86062C32.3967 7.86062 32.6945 8.17699 32.6945 8.59071C32.6945 9.00443 32.3967 9.3208 32.0073 9.3208ZM32.6945 6.15708C32.6945 6.5708 32.3967 6.88717 32.0073 6.88717C31.618 6.88717 31.3202 6.5708 31.3202 6.15708V3.72345C31.3202 3.30974 31.618 2.99336 32.0073 2.99336C32.3967 2.99336 32.6945 3.30974 32.6945 3.72345V6.15708Z" fill="#EF3A3A"/>
</svg>
