<svg width="24" height="24" viewBox="0 0 24 24" fill="none" xmlns="http://www.w3.org/2000/svg">
<path d="M20.5003 3.66995C21.0855 3.87676 21.5922 4.25992 21.9506 4.76666C22.3089 5.2734 22.5014 5.87879 22.5014 6.49945C22.5014 7.12011 22.3089 7.7255 21.9506 8.23224C21.5922 8.73898 21.0855 9.12214 20.5003 9.32895V21.4995C20.5003 21.7647 20.395 22.019 20.2074 22.2066C20.0199 22.3941 19.7656 22.4995 19.5003 22.4995C19.2351 22.4995 18.9808 22.3941 18.7932 22.2066C18.6057 22.019 18.5003 21.7647 18.5003 21.4995V9.32895C17.9152 9.12214 17.4085 8.73898 17.0501 8.23224C16.6917 7.7255 16.4993 7.12011 16.4993 6.49945C16.4993 5.87879 16.6917 5.2734 17.0501 4.76666C17.4085 4.25992 17.9152 3.87676 18.5003 3.66995V2.49945C18.5003 2.23423 18.6057 1.97988 18.7932 1.79234C18.9808 1.60481 19.2351 1.49945 19.5003 1.49945C19.7656 1.49945 20.0199 1.60481 20.2074 1.79234C20.395 1.97988 20.5003 2.23423 20.5003 2.49945V3.66995ZM19.5003 7.49945C19.7656 7.49945 20.0199 7.39409 20.2074 7.20656C20.395 7.01902 20.5003 6.76467 20.5003 6.49945C20.5003 6.23423 20.395 5.97988 20.2074 5.79234C20.0199 5.60481 19.7656 5.49945 19.5003 5.49945C19.2351 5.49945 18.9808 5.60481 18.7932 5.79234C18.6057 5.97988 18.5003 6.23423 18.5003 6.49945C18.5003 6.76467 18.6057 7.01902 18.7932 7.20656C18.9808 7.39409 19.2351 7.49945 19.5003 7.49945ZM5.50034 9.16995C6.08553 9.37676 6.5922 9.75992 6.95057 10.2667C7.30894 10.7734 7.50137 11.3788 7.50137 11.9995C7.50137 12.6201 7.30894 13.2255 6.95057 13.7322C6.5922 14.239 6.08553 14.6221 5.50034 14.829L5.50034 21.4995C5.50034 21.7647 5.39498 22.019 5.20745 22.2066C5.01991 22.3941 4.76556 22.4995 4.50034 22.4995C4.23512 22.4995 3.98077 22.3941 3.79323 22.2066C3.6057 22.019 3.50034 21.7647 3.50034 21.4995L3.50034 14.829C2.91498 14.6222 2.40813 14.2391 2.04962 13.7323C1.69111 13.2255 1.4986 12.62 1.4986 11.9992C1.4986 11.3784 1.69111 10.7729 2.04962 10.2661C2.40813 9.75931 2.91498 9.37616 3.50034 9.16945L3.50034 2.49945C3.50034 2.23423 3.6057 1.97988 3.79323 1.79234C3.98077 1.60481 4.23512 1.49945 4.50034 1.49945C4.76556 1.49945 5.01991 1.60481 5.20745 1.79234C5.39498 1.97988 5.50034 2.23423 5.50034 2.49945V9.16995ZM4.50034 12.9995C4.76556 12.9995 5.01991 12.8941 5.20745 12.7066C5.39498 12.519 5.50034 12.2647 5.50034 11.9995C5.50034 11.7342 5.39498 11.4799 5.20745 11.2923C5.01991 11.1048 4.76556 10.9995 4.50034 10.9995C4.23512 10.9995 3.98077 11.1048 3.79323 11.2923C3.6057 11.4799 3.50034 11.7342 3.50034 11.9995C3.50034 12.2647 3.6057 12.519 3.79323 12.7066C3.98077 12.8941 4.23512 12.9995 4.50034 12.9995ZM13.0003 2.49945L13.0003 14.67C13.5857 14.8767 14.0926 15.2598 14.4511 15.7666C14.8096 16.2734 15.0021 16.8789 15.0021 17.4997C15.0021 18.1205 14.8096 18.726 14.4511 19.2328C14.0926 19.7396 13.5857 20.1227 13.0003 20.3295V21.4995C13.0003 21.7647 12.895 22.019 12.7074 22.2066C12.5199 22.3941 12.2656 22.4995 12.0003 22.4995C11.7351 22.4995 11.4808 22.3941 11.2932 22.2066C11.1057 22.019 11.0003 21.7647 11.0003 21.4995V20.329C10.4152 20.1221 9.90848 19.739 9.55011 19.2322C9.19174 18.7255 8.9993 18.1201 8.9993 17.4995C8.9993 16.8788 9.19174 16.2734 9.55011 15.7667C9.90848 15.2599 10.4152 14.8768 11.0003 14.67L11.0003 2.49945C11.0003 2.23423 11.1057 1.97988 11.2932 1.79234C11.4808 1.60481 11.7351 1.49945 12.0003 1.49945C12.2656 1.49945 12.5199 1.60481 12.7074 1.79234C12.895 1.97988 13.0003 2.23423 13.0003 2.49945ZM12.0003 18.4995C12.2656 18.4995 12.5199 18.3941 12.7074 18.2066C12.895 18.019 13.0003 17.7647 13.0003 17.4995C13.0003 17.2342 12.895 16.9799 12.7074 16.7923C12.5199 16.6048 12.2656 16.4995 12.0003 16.4995C11.7351 16.4995 11.4808 16.6048 11.2932 16.7923C11.1057 16.9799 11.0003 17.2342 11.0003 17.4995C11.0003 17.7647 11.1057 18.019 11.2932 18.2066C11.4808 18.3941 11.7351 18.4995 12.0003 18.4995Z" fill="white"/>
</svg>
